<mxfile host="Electron" modified="2024-03-14T18:39:03.305Z" agent="Mozilla/5.0 (Windows NT 10.0; Win64; x64) AppleWebKit/537.36 (KHTML, like Gecko) draw.io/23.1.5 Chrome/120.0.6099.109 Electron/28.1.0 Safari/537.36" etag="396X_uqqzcjB8HuWNypM" version="23.1.5" type="device">
  <diagram name="Страница — 1" id="EQ2OE8ALPf1RlmZPFgjo">
    <mxGraphModel dx="740" dy="499" grid="1" gridSize="10" guides="1" tooltips="1" connect="1" arrows="1" fold="1" page="1" pageScale="1" pageWidth="827" pageHeight="1169" math="0" shadow="0">
      <root>
        <mxCell id="0" />
        <mxCell id="1" parent="0" />
        <mxCell id="38HP3IzOZBY9DrxJzYLU-1" value="" style="shape=umlLifeline;perimeter=lifelinePerimeter;whiteSpace=wrap;html=1;container=1;dropTarget=0;collapsible=0;recursiveResize=0;outlineConnect=0;portConstraint=eastwest;newEdgeStyle={&quot;curved&quot;:0,&quot;rounded&quot;:0};participant=umlActor;" parent="1" vertex="1">
          <mxGeometry x="70" y="80" width="20" height="320" as="geometry" />
        </mxCell>
        <mxCell id="38HP3IzOZBY9DrxJzYLU-4" value="" style="html=1;points=[[0,0,0,0,5],[0,1,0,0,-5],[1,0,0,0,5],[1,1,0,0,-5]];perimeter=orthogonalPerimeter;outlineConnect=0;targetShapes=umlLifeline;portConstraint=eastwest;newEdgeStyle={&quot;curved&quot;:0,&quot;rounded&quot;:0};" parent="38HP3IzOZBY9DrxJzYLU-1" vertex="1">
          <mxGeometry x="5" y="50" width="10" height="260" as="geometry" />
        </mxCell>
        <mxCell id="38HP3IzOZBY9DrxJzYLU-2" value="Пользователь" style="text;html=1;align=center;verticalAlign=middle;whiteSpace=wrap;rounded=0;" parent="1" vertex="1">
          <mxGeometry y="110" width="80" height="30" as="geometry" />
        </mxCell>
        <mxCell id="38HP3IzOZBY9DrxJzYLU-3" value=":GUI" style="shape=umlLifeline;perimeter=lifelinePerimeter;whiteSpace=wrap;html=1;container=1;dropTarget=0;collapsible=0;recursiveResize=0;outlineConnect=0;portConstraint=eastwest;newEdgeStyle={&quot;curved&quot;:0,&quot;rounded&quot;:0};" parent="1" vertex="1">
          <mxGeometry x="230" y="80" width="100" height="320" as="geometry" />
        </mxCell>
        <mxCell id="38HP3IzOZBY9DrxJzYLU-38" value="" style="html=1;points=[[0,0,0,0,5],[0,1,0,0,-5],[1,0,0,0,5],[1,1,0,0,-5]];perimeter=orthogonalPerimeter;outlineConnect=0;targetShapes=umlLifeline;portConstraint=eastwest;newEdgeStyle={&quot;curved&quot;:0,&quot;rounded&quot;:0};" parent="38HP3IzOZBY9DrxJzYLU-3" vertex="1">
          <mxGeometry x="45" y="60" width="10" height="250" as="geometry" />
        </mxCell>
        <mxCell id="38HP3IzOZBY9DrxJzYLU-39" value="Нажать на &quot;Зарегистрироваться&quot;" style="html=1;verticalAlign=bottom;endArrow=block;curved=0;rounded=0;entryX=0;entryY=0;entryDx=0;entryDy=5;entryPerimeter=0;" parent="1" source="38HP3IzOZBY9DrxJzYLU-4" target="38HP3IzOZBY9DrxJzYLU-38" edge="1">
          <mxGeometry relative="1" as="geometry">
            <mxPoint x="85" y="136" as="sourcePoint" />
            <mxPoint x="410" y="306" as="targetPoint" />
          </mxGeometry>
        </mxCell>
        <mxCell id="38HP3IzOZBY9DrxJzYLU-41" value=":Обработчик команд" style="shape=umlLifeline;perimeter=lifelinePerimeter;whiteSpace=wrap;html=1;container=1;dropTarget=0;collapsible=0;recursiveResize=0;outlineConnect=0;portConstraint=eastwest;newEdgeStyle={&quot;curved&quot;:0,&quot;rounded&quot;:0};" parent="1" vertex="1">
          <mxGeometry x="430" y="80" width="100" height="320" as="geometry" />
        </mxCell>
        <mxCell id="38HP3IzOZBY9DrxJzYLU-42" value="" style="html=1;points=[[0,0,0,0,5],[0,1,0,0,-5],[1,0,0,0,5],[1,1,0,0,-5]];perimeter=orthogonalPerimeter;outlineConnect=0;targetShapes=umlLifeline;portConstraint=eastwest;newEdgeStyle={&quot;curved&quot;:0,&quot;rounded&quot;:0};" parent="38HP3IzOZBY9DrxJzYLU-41" vertex="1">
          <mxGeometry x="45" y="70" width="10" height="80" as="geometry" />
        </mxCell>
        <mxCell id="38HP3IzOZBY9DrxJzYLU-43" value="HTTP-запрос" style="html=1;verticalAlign=bottom;endArrow=block;curved=0;rounded=0;entryX=0;entryY=0;entryDx=0;entryDy=5;entryPerimeter=0;" parent="1" source="38HP3IzOZBY9DrxJzYLU-38" target="38HP3IzOZBY9DrxJzYLU-42" edge="1">
          <mxGeometry x="-0.6316" y="5" relative="1" as="geometry">
            <mxPoint x="370" y="165" as="sourcePoint" />
            <mxPoint x="560" y="165" as="targetPoint" />
            <mxPoint as="offset" />
          </mxGeometry>
        </mxCell>
        <mxCell id="38HP3IzOZBY9DrxJzYLU-47" value=":Работа с JWT-токенами" style="shape=umlLifeline;perimeter=lifelinePerimeter;whiteSpace=wrap;html=1;container=1;dropTarget=0;collapsible=0;recursiveResize=0;outlineConnect=0;portConstraint=eastwest;newEdgeStyle={&quot;curved&quot;:0,&quot;rounded&quot;:0};" parent="1" vertex="1">
          <mxGeometry x="630" y="80" width="100" height="320" as="geometry" />
        </mxCell>
        <mxCell id="38HP3IzOZBY9DrxJzYLU-48" value="" style="html=1;points=[[0,0,0,0,5],[0,1,0,0,-5],[1,0,0,0,5],[1,1,0,0,-5]];perimeter=orthogonalPerimeter;outlineConnect=0;targetShapes=umlLifeline;portConstraint=eastwest;newEdgeStyle={&quot;curved&quot;:0,&quot;rounded&quot;:0};" parent="38HP3IzOZBY9DrxJzYLU-47" vertex="1">
          <mxGeometry x="45" y="80" width="10" height="50" as="geometry" />
        </mxCell>
        <mxCell id="38HP3IzOZBY9DrxJzYLU-75" value="Ответ" style="html=1;verticalAlign=bottom;endArrow=open;dashed=1;endSize=8;curved=0;rounded=0;exitX=0;exitY=1;exitDx=0;exitDy=-5;exitPerimeter=0;" parent="1" source="38HP3IzOZBY9DrxJzYLU-42" target="38HP3IzOZBY9DrxJzYLU-38" edge="1">
          <mxGeometry x="0.8205" relative="1" as="geometry">
            <mxPoint x="285" y="447" as="targetPoint" />
            <mxPoint x="675" y="447" as="sourcePoint" />
            <mxPoint as="offset" />
          </mxGeometry>
        </mxCell>
        <mxCell id="38HP3IzOZBY9DrxJzYLU-84" value="&lt;b&gt;alt&lt;/b&gt;" style="shape=umlFrame;whiteSpace=wrap;html=1;pointerEvents=0;width=40;height=20;" parent="1" vertex="1">
          <mxGeometry y="239" width="470" height="141" as="geometry" />
        </mxCell>
        <mxCell id="38HP3IzOZBY9DrxJzYLU-85" value="&lt;span style=&quot;color: rgb(0, 0, 0); font-family: Helvetica; font-size: 12px; font-style: normal; font-variant-ligatures: normal; font-variant-caps: normal; font-weight: 400; letter-spacing: normal; orphans: 2; text-align: center; text-indent: 0px; text-transform: none; widows: 2; word-spacing: 0px; -webkit-text-stroke-width: 0px; background-color: rgb(251, 251, 251); text-decoration-thickness: initial; text-decoration-style: initial; text-decoration-color: initial; float: none; display: inline !important;&quot;&gt;[успех]&lt;/span&gt;" style="text;whiteSpace=wrap;html=1;" parent="1" vertex="1">
          <mxGeometry y="260" width="40" height="30" as="geometry" />
        </mxCell>
        <mxCell id="38HP3IzOZBY9DrxJzYLU-86" value="" style="html=1;points=[[0,0,0,0,5],[0,1,0,0,-5],[1,0,0,0,5],[1,1,0,0,-5]];perimeter=orthogonalPerimeter;outlineConnect=0;targetShapes=umlLifeline;portConstraint=eastwest;newEdgeStyle={&quot;curved&quot;:0,&quot;rounded&quot;:0};" parent="1" vertex="1">
          <mxGeometry x="281" y="270" width="10" height="40" as="geometry" />
        </mxCell>
        <mxCell id="38HP3IzOZBY9DrxJzYLU-87" value="переход на форму входа" style="html=1;align=left;spacingLeft=2;endArrow=block;rounded=0;edgeStyle=orthogonalEdgeStyle;curved=0;rounded=0;" parent="1" target="38HP3IzOZBY9DrxJzYLU-86" edge="1">
          <mxGeometry relative="1" as="geometry">
            <mxPoint x="285" y="250" as="sourcePoint" />
            <Array as="points">
              <mxPoint x="316" y="250" />
              <mxPoint x="316" y="290" />
            </Array>
          </mxGeometry>
        </mxCell>
        <mxCell id="38HP3IzOZBY9DrxJzYLU-88" value="" style="endArrow=none;dashed=1;html=1;rounded=0;exitX=0;exitY=0.652;exitDx=0;exitDy=0;exitPerimeter=0;entryX=1.001;entryY=0.682;entryDx=0;entryDy=0;entryPerimeter=0;" parent="1" source="38HP3IzOZBY9DrxJzYLU-84" target="38HP3IzOZBY9DrxJzYLU-84" edge="1">
          <mxGeometry width="50" height="50" relative="1" as="geometry">
            <mxPoint x="-43" y="340" as="sourcePoint" />
            <mxPoint x="830" y="340" as="targetPoint" />
          </mxGeometry>
        </mxCell>
        <mxCell id="38HP3IzOZBY9DrxJzYLU-89" value="Отобразить страницу" style="html=1;verticalAlign=bottom;endArrow=open;dashed=1;endSize=8;curved=0;rounded=0;" parent="1" edge="1">
          <mxGeometry relative="1" as="geometry">
            <mxPoint x="85" y="321" as="targetPoint" />
            <mxPoint x="275" y="321" as="sourcePoint" />
          </mxGeometry>
        </mxCell>
        <mxCell id="38HP3IzOZBY9DrxJzYLU-90" value="Сообщить об ошибке" style="html=1;verticalAlign=bottom;endArrow=open;dashed=1;endSize=8;curved=0;rounded=0;exitX=0;exitY=1;exitDx=0;exitDy=-5;exitPerimeter=0;" parent="1" edge="1">
          <mxGeometry relative="1" as="geometry">
            <mxPoint x="85" y="365" as="targetPoint" />
            <mxPoint x="275" y="365" as="sourcePoint" />
          </mxGeometry>
        </mxCell>
        <mxCell id="57xiDTfuICt2LBW86lWz-1" value="Удалить токен пользователя" style="html=1;verticalAlign=bottom;endArrow=block;curved=0;rounded=0;entryX=0;entryY=0;entryDx=0;entryDy=5;entryPerimeter=0;" edge="1" parent="1" source="38HP3IzOZBY9DrxJzYLU-42" target="38HP3IzOZBY9DrxJzYLU-48">
          <mxGeometry x="-0.1053" y="5" relative="1" as="geometry">
            <mxPoint x="295" y="165" as="sourcePoint" />
            <mxPoint x="485" y="165" as="targetPoint" />
            <mxPoint as="offset" />
          </mxGeometry>
        </mxCell>
        <mxCell id="57xiDTfuICt2LBW86lWz-2" value="Результат" style="html=1;verticalAlign=bottom;endArrow=open;dashed=1;endSize=8;curved=0;rounded=0;exitX=0;exitY=1;exitDx=0;exitDy=-5;exitPerimeter=0;" edge="1" parent="1" source="38HP3IzOZBY9DrxJzYLU-48" target="38HP3IzOZBY9DrxJzYLU-42">
          <mxGeometry x="0.5263" y="-5" relative="1" as="geometry">
            <mxPoint x="295" y="455" as="targetPoint" />
            <mxPoint x="485" y="455" as="sourcePoint" />
            <mxPoint as="offset" />
          </mxGeometry>
        </mxCell>
      </root>
    </mxGraphModel>
  </diagram>
</mxfile>
